<svg xmlns="http://www.w3.org/2000/svg" width="1000" height="1000" viewBox="0 0 1000 1000"><path fill-rule="evenodd" clip-rule="evenodd" fill="#020202" d="M499.993 897.492c-219.541 0-397.465-177.979-397.465-397.52 0-219.473 177.924-397.479 397.465-397.479 219.556 0 397.479 178.006 397.479 397.479 0 219.542-177.923 397.52-397.479 397.52zm0-709.433c-172.295 0-311.982 139.619-311.982 311.914s139.688 311.955 311.982 311.955c172.309 0 311.997-139.66 311.997-311.955s-139.688-311.914-311.997-311.914zm170.396 368.726h-113.57v113.569c0 31.387-25.453 56.757-56.826 56.757s-56.743-25.37-56.743-56.757v-113.569h-113.569c-31.373 0-56.826-25.454-56.826-56.813 0-31.304 25.453-56.757 56.826-56.757h113.569v-113.569c0-31.373 25.37-56.757 56.743-56.757s56.826 25.384 56.826 56.757v113.569h113.569c31.304 0 56.757 25.453 56.757 56.757.001 31.359-25.453 56.813-56.756 56.813z"/></svg>