<svg xmlns="http://www.w3.org/2000/svg" width="1000" height="1000" viewBox="0 0 1000 1000"><path fill-rule="evenodd" clip-rule="evenodd" fill="#020202" d="M844.103 844.466h-688.535c-27.276 0-49.304-22.055-49.304-49.276v-491.743c0-27.086 22.027-49.153 49.304-49.153h27.004l13.162-58.292c5.085-22.53 31.002-40.152 58.169-40.152h295.141c27.086 0 53.083 17.622 58.114 40.152l13.217 58.292h76.117c0-27.235 22-49.168 49.275-49.168h49.168c27.086 0 49.167 21.933 49.167 49.168 27.086 0 49.113 22.067 49.113 49.153v491.742c.001 27.222-22.027 49.277-49.112 49.277zm-49.167-491.838h-260.332l-34.809-98.334h-196.778l-34.836 98.334h-63.445v393.422h590.2v-393.422zm-368.892 0c94.989 0 172.167 77.138 172.167 172.113 0 95.153-77.178 172.141-172.167 172.141-95.018 0-172.141-76.987-172.141-172.141 0-94.975 77.123-172.113 172.141-172.113zm0 245.838c40.764 0 73.751-32.96 73.751-73.725 0-40.777-32.987-73.71-73.751-73.71-40.792 0-73.725 32.933-73.725 73.71 0 40.765 32.933 73.725 73.725 73.725zm295.031-196.711c13.625 0 24.692 11 24.692 24.665v245.933c0 13.543-11.067 24.529-24.692 24.529-13.543 0-24.583-10.986-24.583-24.529v-245.933c0-13.665 11.04-24.665 24.583-24.665z"/></svg>