<svg xmlns="http://www.w3.org/2000/svg" width="1000" height="1000" viewBox="0 0 1000 1000"><path fill-rule="evenodd" clip-rule="evenodd" fill="#020202" d="M864.997 178.802l-675.283 675.359c-15.074 15.099-39.625 15.099-54.749 0-15.124-15.149-15.124-39.7 0-54.774l675.334-675.283c15.073-15.174 39.625-15.174 54.698 0 15.174 15.073 15.174 39.625 0 54.698zm-352.085 169.615l-114.841 114.892c-.605-4.336-1.312-8.521-1.312-12.906 0-57.042 46.229-103.246 103.246-103.246 4.387-.001 8.622.731 12.907 1.26zm-12.906-104.859c-114.236 0-206.845 92.634-206.845 206.845 0 34.18 8.368 66.293 23.089 94.676l-56.109 56.186c-27.677-43.759-44.062-95.281-44.062-150.861 0-156.835 127.092-283.952 283.927-283.952 55.605 0 107.229 16.233 151.038 43.81l-56.362 56.387c-28.383-14.698-60.495-23.091-94.676-23.091zm-3.528 413.488l3.528-.151s2.319.151 3.529.151c112.572-1.865 203.315-93.617 203.315-206.644 0-12.628-1.36-24.93-3.479-36.902l62.361-62.361c11.595 30.929 18.25 64.303 18.25 99.264 0 104.708-56.917 196.006-141.358 245.185 49.808 29.794 86.962 74.863 104.254 127.671 6.957 6.982 11.242 16.611 11.242 27.173 0 21.425-17.292 38.768-38.717 38.768-21.426 0-38.667-17.343-38.667-38.768 0-4.588 1.108-8.772 2.57-12.881h-13.106c-24.854-60.117-91.551-103.246-170.195-103.246s-145.34 43.128-170.193 103.245h-13.107c1.462 4.108 2.621 8.293 2.621 12.881 0 21.425-17.393 38.768-38.717 38.768-14.368 0-26.417-8.243-33.121-19.813l215.818-215.793c10.839 1.915 21.879 3.251 33.172 3.453z"/></svg>