<svg xmlns="http://www.w3.org/2000/svg" width="1000" height="1000" viewBox="0 0 1000 1000"><path fill-rule="evenodd" clip-rule="evenodd" fill="#020202" d="M667.705 697.364c58.593 35.048 102.3 88.125 122.729 150.157 8.154 8.303 13.225 19.57 13.225 32.084 0 25.086-20.43 45.486-45.604 45.486-25.115 0-45.516-20.4-45.516-45.486 0-5.396 1.334-10.438 3.054-15.271h-16.042c-29.325-70.542-107.162-121.454-199.588-121.454-92.366 0-170.262 50.912-199.514 121.455h-16.102c1.721 4.833 3.129 9.874 3.129 15.271 0 25.086-20.416 45.486-45.605 45.486-25.101 0-45.516-20.4-45.516-45.486 0-12.514 5.085-23.781 13.21-32.084 20.416-62.032 64.063-115.109 122.641-150.157-99.334-57.881-166.199-165.162-166.199-288.441 0-184.495 149.535-334.03 333.956-334.03 184.495 0 334.031 149.535 334.031 334.03 0 123.278-66.955 230.559-166.289 288.44zm-167.742-531.751c-134.368 0-243.31 108.941-243.31 243.31 0 132.945 106.762 240.879 239.247 243.073l4.063-.148 4.151.148c132.485-2.194 239.145-110.128 239.145-243.073 0-134.368-108.943-243.31-243.296-243.31zm0 364.78c-67.028 0-121.455-54.44-121.455-121.47 0-67.103 54.427-121.454 121.455-121.454 67.103 0 121.455 54.352 121.455 121.454 0 67.029-54.353 121.47-121.455 121.47zm-45.516-212.576c-25.189 0-45.516 20.4-45.516 45.59 0 25.101 20.326 45.516 45.516 45.516s45.516-20.415 45.516-45.516c0-25.189-20.326-45.59-45.516-45.59z"/></svg>