<svg xmlns="http://www.w3.org/2000/svg" width="1000" height="1000" viewBox="0 0 1000 1000"><path fill-rule="evenodd" clip-rule="evenodd" fill="#020202" d="M824.291 853.787h-648.583c-48.828 0-88.443-39.558-88.443-88.472v-442.172c0-48.828 39.615-88.458 88.443-88.458h58.962c0-48.828 39.615-88.472 88.443-88.472h235.849c48.828 0 88.501 39.644 88.501 88.472h58.904v-29.467c0-16.324 13.186-29.467 29.481-29.467h29.538c16.237 0 29.424 13.143 29.424 29.467v29.467h29.48c48.828 0 88.443 39.63 88.443 88.458v442.173c.001 48.913-39.614 88.471-88.442 88.471zm0-501.179c0-16.252-13.243-29.466-29.48-29.466h-206.369l-29.48-59.006c0-16.237-13.187-29.452-29.481-29.452h-176.887c-16.295 0-29.48 13.215-29.48 29.452l-29.481 59.006h-88.443c-16.237 0-29.48 13.214-29.48 29.466v383.255c0 16.323 13.243 29.452 29.48 29.452h589.622c16.237 0 29.48-13.129 29.48-29.452v-383.255h-.001zm-88.442 353.774c-16.296 0-29.481-13.186-29.481-29.452v-265.316c0-16.339 13.186-29.539 29.481-29.539s29.538 13.2 29.538 29.539v265.316c0 16.266-13.243 29.452-29.538 29.452zm-294.812 29.481c-113.951 0-206.367-92.417-206.367-206.396 0-113.908 92.416-206.324 206.367-206.324 114.009 0 206.426 92.416 206.426 206.324 0 113.979-92.417 206.396-206.426 206.396zm0-324.249c-65.123 0-117.924 52.772-117.924 117.853 0 65.151 52.801 117.924 117.924 117.924 65.181 0 117.925-52.772 117.925-117.924 0-65.08-52.744-117.853-117.925-117.853z"/></svg>