<svg xmlns="http://www.w3.org/2000/svg" width="1000" height="1000" viewBox="0 0 1000 1000"><path fill-rule="evenodd" clip-rule="evenodd" fill="#020202" d="M592.771 499.966l278.309 278.308c25.691 25.691 25.691 67.176 0 92.867-25.594 25.594-67.078 25.594-92.77 0l-278.326-278.406-278.308 278.407c-25.596 25.594-67.159 25.594-92.771 0-25.675-25.691-25.675-67.176 0-92.867l278.326-278.309-278.326-278.311c-25.675-25.627-25.675-67.175 0-92.771 25.611-25.627 67.175-25.627 92.771 0l278.309 278.311 278.326-278.311c25.691-25.627 67.176-25.627 92.77 0 25.691 25.596 25.691 67.144 0 92.771l-278.31 278.311z"/></svg>