<svg xmlns="http://www.w3.org/2000/svg" width="1000" height="1000" viewBox="0 0 1000 1000"><path fill-rule="evenodd" clip-rule="evenodd" fill="#020202" d="M856.377 454.912c-32.34 0-64.744-32.403-64.744-32.403s-64.744 0-32.404 356.502c0 0-32.34 64.744-64.807 64.744h-388.78c-32.467 0-64.87-64.744-64.87-64.744 32.403-356.502-32.403-356.502-32.403-356.502s-32.341 32.403-64.808 32.403c-32.403 0-64.808-129.63-64.808-162.019 0-32.388 129.615-97.227 194.422-129.614 28.037-14.019 32.467 0 64.808 0-.127 11.771 3.417 22.452 8.924 32.388h-8.924l162.017 194.47 162.019-194.47h-8.924c5.38-9.936 9.05-20.616 8.924-32.388 32.403 0 36.708-14.019 64.87 0 64.744 32.388 194.359 97.227 194.359 129.614 0 32.389-32.404 162.019-64.871 162.019zm-453.588-291.633h194.422l-97.211 97.227-97.211-97.227z"/></svg>