<svg xmlns="http://www.w3.org/2000/svg" width="1000" height="1000" viewBox="0 0 1000 1000"><path fill-rule="evenodd" clip-rule="evenodd" fill="#020202" d="M793.856 745.332h-185.005l-108.811 130.586-108.891-130.586h-184.991c-72.067 0-130.601-58.438-130.601-130.586v-391.77099999999996c0-54.071 43.9-97.892 97.971-97.892h652.943c54.07 0 97.971 43.82 97.971 97.892v391.771c0 72.149-58.502 130.586-130.586 130.586zm-522.357-391.772c-36.089 0-65.341 29.268-65.341 65.341s29.252 65.261 65.341 65.261c36.074 0 65.245-29.188 65.245-65.261s-29.171-65.341-65.245-65.341zm228.541 0c-36.074 0-65.325 29.268-65.325 65.341s29.251 65.261 65.325 65.261c35.994 0 65.262-29.188 65.262-65.261s-29.268-65.341-65.262-65.341zm228.492 0c-36.09 0-65.26 29.268-65.26 65.341s29.17 65.261 65.26 65.261c36.059 0 65.324-29.188 65.324-65.261s-29.265-65.341-65.324-65.341z"/></svg>