<svg xmlns="http://www.w3.org/2000/svg" width="1000" height="1000" viewBox="0 0 1000 1000"><path fill-rule="evenodd" clip-rule="evenodd" fill="#020202" d="M527.731 306.389v180.232h180.259c22.966 0 41.599 18.632 41.599 41.625 0 22.938-18.633 41.571-41.599 41.571h-221.856c-17.225 0-32.012-10.481-38.349-25.431 0-.054 0-.189-.054-.271-2.005-4.929-3.25-10.291-3.25-15.87v-221.856c0-22.992 18.687-41.652 41.652-41.652s41.598 18.659 41.598 41.652zm-27.731 568.455c-64.077 0-124.199-15.87-177.442-43.358l-44.415 71.145-110.929-221.885h249.59l-49.886 79.729c40.244 19.635 85.309 30.875 133.082 30.875 168.288 0 304.729-136.44 304.729-304.729 0-168.316-136.44-304.729-304.729-304.729s-304.729 136.412-304.729 304.729c0 18.984 2.004 37.481 5.308 55.491h-8.449c1.57 4.36 2.816 8.937 2.816 13.866 0 22.911-18.578 41.57-41.599 41.57-23.02 0-41.598-18.659-41.598-41.57 0-6.229 1.57-11.998 4.008-17.306-2.329-17.062-4.008-34.341-4.008-52.052 0-214.437 173.813-388.25 388.25-388.25s388.249 173.813 388.249 388.25-173.811 388.224-388.248 388.224z"/></svg>