<svg xmlns="http://www.w3.org/2000/svg" width="1000" height="1000" viewBox="0 0 1000 1000"><path fill-rule="evenodd" clip-rule="evenodd" fill="#020202" d="M861.388 355.429h-43.343v433.687c0 47.975-38.854 86.771-86.743 86.771h-462.658c-47.89 0-86.701-38.797-86.701-86.771v-433.687h-43.413c-23.902 0-43.344-19.427-43.344-43.344 0-23.973 19.441-43.428 43.344-43.428h164.365c-3.205-9.064-5.28-18.692-5.28-28.886v-28.887c0-47.89 38.797-86.771 86.687-86.771h231.315c47.974 0 86.771 38.882 86.771 86.771v28.887c0 10.193-2.089 19.821-5.308 28.886h164.309c23.974 0 43.429 19.455 43.429 43.428-.002 23.917-19.457 43.344-43.43 43.344zm-592.744 404.8c0 16.011 12.946 28.886 28.971 28.886h404.772c15.926 0 28.915-12.875 28.915-28.886v-404.8h-462.658v404.8zm346.972-520.458c0-15.926-12.961-28.887-28.887-28.887h-173.458c-16.01 0-28.971 12.961-28.971 28.887v28.886h231.315v-28.886h.001zm0 491.544c-15.954 0-28.887-12.961-28.887-28.887v-260.228c0-16.011 12.933-28.972 28.887-28.972 16.01 0 28.971 12.961 28.971 28.972v260.229c0 15.925-12.961 28.886-28.971 28.886zm-115.658 0c-15.939 0-28.899-12.961-28.899-28.887v-260.228c0-16.011 12.96-28.972 28.899-28.972 16.011 0 28.972 12.961 28.972 28.972v260.229c0 15.925-12.961 28.886-28.972 28.886zm-115.657 0c-15.939 0-28.9-12.961-28.9-28.887v-260.228c0-16.011 12.961-28.972 28.9-28.972 16.011 0 28.971 12.961 28.971 28.972v260.229c-.001 15.925-12.96 28.886-28.971 28.886z"/></svg>