<svg xmlns="http://www.w3.org/2000/svg" width="1000" height="1000" viewBox="0 0 1000 1000"><path fill-rule="evenodd" clip-rule="evenodd" fill="#020202" d="M499.958 897.501c-219.562 0-397.501-177.939-397.501-397.501s177.939-397.501 397.501-397.501 397.584 177.939 397.584 397.501-178.022 397.501-397.584 397.501zm0-709.512c-172.311 0-312.012 139.7-312.012 312.011s139.701 312.012 312.012 312.012 312.011-139.701 312.011-312.012-139.7-312.011-312.011-312.011zm127.777 312.011c-39.21 0-70.96-31.806-70.96-71.015s31.75-70.96 70.96-70.96c39.182 0 71.015 31.751 71.015 70.96s-31.833 71.015-71.015 71.015zm-127.777 227.159c-170.342 0-170.342-141.946-170.342-141.946 170.342-56.846 340.739 0 340.739 0s0 141.946-170.397 141.946zm-127.777-227.159c-39.195 0-70.932-31.806-70.932-71.015s31.736-70.96 70.932-70.96c39.21 0 71.029 31.751 71.029 70.96s-31.819 71.015-71.029 71.015z"/></svg>