<svg xmlns="http://www.w3.org/2000/svg" width="1000" height="1000" viewBox="0 0 1000 1000"><path fill-rule="evenodd" clip-rule="evenodd" fill="#020202" d="M839.906 735.61h-91.642v91.667c0 21.708-17.54 39.3-39.274 39.3s-39.224-17.592-39.224-39.3v-91.667h-91.692c-21.684 0-39.326-17.541-39.326-39.249 0-21.709 17.643-39.249 39.326-39.249h91.692v-91.667c0-21.709 17.489-39.249 39.224-39.249s39.274 17.54 39.274 39.249v91.667h91.642c21.683 0 39.224 17.54 39.224 39.249 0 21.708-17.541 39.249-39.224 39.249zm-536.756-301.055c0-36.155 29.303-65.483 65.458-65.483s65.407 29.328 65.407 65.483-29.252 65.407-65.407 65.407-65.458-29.252-65.458-65.407zm235.598 0c0-36.155 29.354-65.483 65.509-65.483s65.51 29.328 65.51 65.483-29.354 65.407-65.51 65.407-65.509-29.252-65.509-65.407zm-52.315 261.806c0 4.449.665 8.771 1.278 13.015l-1.278.077c-157.15 0-157.15-130.916-157.15-130.916 118.592-39.531 236.979-19.434 288.066-7.16v33.317h-39.274c-50.629 0-91.642 41.09-91.642 91.667zm314.198-91.667v-39.249c0-25.135-10.177-47.866-26.541-64.461l.052-1.022c0-158.89-128.819-287.684-287.709-287.684-158.889 0-287.708 128.794-287.708 287.684 0 158.914 128.819 287.708 287.708 287.708 19.842 0 39.07-2.48 57.736-6.341 10.534 4.193 21.938 6.673 33.905 6.673h39.274v54.029c-40.655 15.648-84.737 24.546-130.916 24.546-202.459 0-366.564-164.156-366.564-366.615 0-202.46 164.105-366.54 366.564-366.54 202.46 0 366.565 164.08 366.565 366.54 0 36.487-5.728 71.568-15.803 104.732h-36.563z"/></svg>