<svg xmlns="http://www.w3.org/2000/svg" width="1000" height="1000" viewBox="0 0 1000 1000"><path fill-rule="evenodd" clip-rule="evenodd" fill="#020202" d="M693.969 861.768c-5.552-20.164-194.525-132.467-193.969-214.26.959-141.729 143.647-164.468 193.768-42.397 47.949-117.225 192.909-99.659 193.868 42.397.505 81.263-188.519 193.364-193.667 214.26zm-38.915-426.4c0 35.735-28.972 64.632-64.656 64.632-35.634 0-64.556-28.896-64.556-64.632 0-35.685 28.922-64.581 64.556-64.581 35.684 0 64.656 28.897 64.656 64.581zm-361.793 0c0-35.685 28.921-64.581 64.555-64.581 35.686 0 64.657 28.896 64.657 64.581 0 35.735-28.972 64.632-64.657 64.632-35.634 0-64.555-28.896-64.555-64.632zm155.053 193.819c0 29.703 4.492 54.864 11.963 76.82-140.721-7.723-141.175-128.455-141.175-128.455 52.189-17.438 104.228-22.965 150.512-22.839-13.123 18.12-21.3 42.347-21.3 74.474zm309.251-139.509c-5.451-151.95-130.07-273.642-283.459-273.642-156.82 0-283.862 127.143-283.862 283.964 0 156.82 127.042 283.963 283.862 283.963 12.114 0 23.976-1.009 35.635-2.473 30.334 27.508 67.281 43.482 100.24 53.729-41.943 16.959-87.723 26.549-135.875 26.549-199.724 0-361.743-161.943-361.743-361.768 0-199.825 162.02-361.769 361.743-361.769 193.516 0 350.992 151.899 360.886 342.916-24.934-7.848-52.342-5.046-77.427 8.531z"/></svg>