<svg xmlns="http://www.w3.org/2000/svg" width="1000" height="1000" viewBox="0 0 1000 1000"><path fill-rule="evenodd" clip-rule="evenodd" fill="#020202" d="M552.296 601.486c.104 1.771 1.041 3.439 1.041 5.212v53.494h160.167c29.512 0 53.494 23.774 53.494 53.335 0 29.458-23.982 53.39-53.494 53.39h-160.167v106.831c0 29.456-23.877 53.389-53.491 53.389-29.407 0-53.284-23.933-53.284-53.389v-106.831h-160.272c-29.406 0-53.284-23.932-53.284-53.39 0-29.561 23.877-53.335 53.284-53.335h160.271v-53.494c0-1.772.937-3.441 1.042-5.212-122.315-24.351-214.597-132.17-214.597-261.679 0-147.446 119.498-266.944 266.839-266.944 147.444 0 267.152 119.498 267.152 266.944.001 129.509-92.283 237.329-214.701 261.679zm-52.45-421.794c-88.425 0-160.062 71.69-160.062 160.115 0 88.528 71.636 160.165 160.062 160.165 88.633 0 160.27-71.636 160.27-160.165-.001-88.425-71.637-160.115-160.27-160.115z"/></svg>