<svg xmlns="http://www.w3.org/2000/svg" width="1000" height="1000" viewBox="0 0 1000 1000"><path fill-rule="evenodd" clip-rule="evenodd" fill="#020202" d="M894.124 828.404v32.84c0 18.186-14.752 32.842-32.842 32.842h-32.84v.641h-212.312l92.879-92.877-124.502-124.502c-11.609-11.867-18.793-28.094-18.793-46.021 0-36.209 29.377-65.65 65.682-65.65 17.896 0 34.061 7.184 45.99 18.857v-.064l.449.418 124.053 124.084 92.877-92.879v212.313h-.641v-.002zm-216.289-413.368v.08l-.449.417v-.08c-11.867 11.674-28.094 18.857-45.99 18.857-36.305 0-65.682-29.425-65.682-65.649 0-17.929 7.184-34.173 18.793-46.007l124.502-124.518-92.879-92.878h212.313v.673h32.84c18.09 0 32.842 14.721 32.842 32.825v32.825h.641v212.313l-92.877-92.879-124.054 124.021zm-177.867 150.64c-36.178 0-65.619-29.441-65.619-65.715 0-36.209 29.441-65.65 65.619-65.65 36.305 0 65.746 29.441 65.746 65.65 0 36.273-29.442 65.715-65.746 65.715zm-131.365-131.365c-17.832 0-34.06-7.184-45.926-18.857v.08l-.514-.417-123.988-124.101-92.942 92.879v-212.313h.77v-32.825c0-18.104 14.625-32.825 32.777-32.825h32.841v-.673h212.313l-92.879 92.878 123.988 124.005s.128 0 .128.096l.385.417h-.063c11.674 11.834 18.857 28.078 18.857 46.007-.001 36.224-29.443 65.649-65.747 65.649zm-45.926 150.158v.064c11.866-11.674 28.094-18.857 45.926-18.857 36.305 0 65.746 29.441 65.746 65.65 0 17.928-7.184 34.154-18.857 46.021h.063l-.385.416h-.128l-123.988 124.087 92.879 92.877h-212.313v-.641h-32.841c-18.152 0-32.777-14.656-32.777-32.842v-32.84h-.77v-212.312l92.942 92.879 124.503-124.502z"/></svg>