<svg xmlns="http://www.w3.org/2000/svg" width="1000" height="1000" viewBox="0 0 1000 1000"><path fill-rule="evenodd" clip-rule="evenodd" fill="#020202" d="M872.508 531.005c-16.353 16.353-42.522 16.437-59.237.724v268.125c0 47.167-38.212 85.379-85.49 85.379h-455.572c-47.251 0-85.463-38.212-85.463-85.379v-268.125c-16.729 15.713-42.912 15.629-59.265-.724-16.729-16.658-16.729-43.719 0-60.377l59.265-59.349v-209.472c0-15.796 12.766-28.478 28.465-28.478h113.913c15.769 0 28.465 12.682 28.465 28.478v38.657l112.23-112.161c16.646-16.742 43.719-16.742 60.364 0l342.324 342.325c16.743 16.658 16.743 43.719.001 60.377zm-457.921 183.386v85.463h170.829v-227.856c0-15.769-12.766-28.45-28.451-28.45h-113.927c-15.686 0-28.451 12.682-28.451 28.45v142.393zm-113.927-484.133h-56.985v124.12l56.985-56.929v-67.191zm427.12 216.48l-227.744-227.855-227.827 227.855v324.637c0 15.713 12.752 28.479 28.451 28.479h56.929v-227.856c0-47.167 38.281-85.435 85.449-85.435h113.927c47.168 0 85.436 38.268 85.436 85.435v227.855h56.957c15.74 0 28.423-12.766 28.423-28.479v-324.636h-.001z"/></svg>