<svg xmlns="http://www.w3.org/2000/svg" width="1000" height="1000" viewBox="0 0 1000 1000"><path fill-rule="evenodd" clip-rule="evenodd" fill="#020202" d="M831.93 862.035h-663.859c-49.958 0-90.457-40.485-90.457-90.457v-543.156c0-49.973 40.499-90.457 90.457-90.457h663.859c49.973 0 90.457 40.484 90.457 90.457v543.156c0 49.972-40.485 90.457-90.457 90.457zm0-603.382c0-16.707-13.524-30.231-30.231-30.231h-603.383c-16.721 0-30.245 13.524-30.245 30.231v482.693c0 16.707 13.524 30.231 30.245 30.231h603.382c16.707 0 30.231-13.524 30.231-30.231v-482.693h.001zm-60.374 482.694h-543.097c-16.706 0-30.143-13.436-30.143-30.143v-27.579c38.305-54.274 86.804-119.627 120.688-153.424 30.157-30.157 90.457 120.688 150.846 120.688 90.442 0 120.673-241.391 181.018-241.391 45.848 0 91.754 156.502 150.83 218.614v83.091c0 16.708-13.465 30.144-30.142 30.144zm-362.094-271.534c-49.973 0-90.457-40.5-90.457-90.473 0-50.046 40.484-90.53 90.457-90.53 50.046 0 90.531 40.484 90.531 90.53 0 49.973-40.485 90.473-90.531 90.473z"/></svg>