<svg xmlns="http://www.w3.org/2000/svg" width="1000" height="1000" viewBox="0 0 1000 1000"><path fill-rule="evenodd" clip-rule="evenodd" fill="#020202" d="M761.926 657.15c0 144.645-117.434 261.873-262.08 261.873-144.541 0-261.771-117.229-261.771-261.873 0-127.102 90.531-232.822 210.523-256.709-.104-1.738-1.023-3.375-1.023-5.268v-126.437l-58.717 58.871c-20.459 20.357-53.705 20.357-74.063 0-20.459-20.561-20.459-53.705 0-74.111l135.951-136.104c6.955-20.92 25.982-36.418 49.1-36.418 23.426 0 42.453 15.498 49.307 36.418l135.949 136.104c20.563 20.406 20.563 53.551 0 74.111-20.459 20.357-53.5 20.357-74.061 0l-58.717-58.871v126.438c0 1.893-.922 3.529-1.023 5.268 120.094 23.886 210.625 129.607 210.625 256.708zm-262.08-157.175c-86.744 0-157.021 70.275-157.021 157.176 0 86.746 70.277 157.021 157.021 157.021 86.951 0 157.229-70.275 157.229-157.021-.001-86.901-70.278-157.176-157.229-157.176z"/></svg>