<svg xmlns="http://www.w3.org/2000/svg" width="1000" height="1000" viewBox="0 0 1000 1000"><path fill-rule="evenodd" clip-rule="evenodd" fill="#020202" d="M883.074 174.854l-708.678 708.756c-15.925 15.846-41.584 15.846-57.509 0-15.819-15.898-15.819-41.663 0-57.482l708.73-708.678c15.872-15.925 41.584-15.925 57.456 0 15.873 15.819 15.873 41.584.001 57.404zm-383.094 14.099c-59.837 0-108.352 48.567-108.352 108.352v162.58c0 4.604.794 8.994 1.322 13.544l-65.074 65.102c-11.005-24.02-17.512-50.525-17.512-78.646v-162.58c0-104.701 84.914-189.563 189.615-189.563 70.154 0 130.731 38.516 163.48 95.178l-60.948 60.975c-14.177-43.384-54.439-74.942-102.531-74.942zm-325.054 270.932h2.751c-1.534-4.312-2.751-8.782-2.751-13.544 0-22.458 18.199-40.658 40.632-40.658 22.432 0 40.685 18.2 40.685 40.658 0 4.762-1.27 9.232-2.804 13.544h2.804c0 43.251 11.375 83.856 31.162 119.092l-58.938 58.964c-33.701-51.134-53.541-112.188-53.541-178.056zm325.054 189.563c-4.655 0-8.994-1.032-13.491-1.323l203.107-203.159v14.919c.001 104.727-84.861 189.563-189.616 189.563zm-177.764 162.924c.582-.079 1.059-.344 1.693-.344h121.896v-31.955c-24.654-4.18-48.25-11.375-70.63-20.66l63.699-63.778c19.628 5.026 39.997 8.042 61.106 8.042 134.594 0 243.792-109.198 243.792-243.792h2.751c-1.534-4.312-2.751-8.782-2.751-13.544 0-22.458 18.146-40.658 40.632-40.658 22.432 0 40.579 18.2 40.579 40.658 0 4.762-1.164 9.232-2.698 13.544h2.698c0 161.047-117.135 294.291-270.827 320.188v31.955h121.896c22.432 0 40.579 18.146 40.579 40.605s-18.147 40.605-40.579 40.605h-352.143c-22.485 0-40.632-18.146-40.632-40.605 0-.635.317-1.111.37-1.666l38.569-38.595z"/></svg>