<svg xmlns="http://www.w3.org/2000/svg" width="1000" height="1000" viewBox="0 0 1000 1000"><path fill-rule="evenodd" clip-rule="evenodd" fill="#020202" d="M859.255 455.589c0 177.953-129.54 325.239-299.425 353.831v35.315h134.715c24.82 0 44.964 20.143 44.964 44.905 0 24.82-20.144 44.963-44.964 44.963h-389.176c-24.747 0-44.876-20.143-44.876-44.963 0-24.763 20.129-44.905 44.876-44.905h134.715v-35.315c-169.797-28.592-299.337-175.878-299.337-353.831h3.011c-1.695-4.795-3.011-9.647-3.011-14.969 0-24.82 20.128-44.948 44.876-44.948 24.835 0 44.963 20.128 44.963 44.948 0 5.321-1.389 10.174-3.084 14.969h3.084c0 148.806 120.595 269.4 269.415 269.4s269.415-120.595 269.415-269.4h3.011c-1.695-4.795-3.011-9.647-3.011-14.969 0-24.82 20.113-44.948 44.875-44.948 24.821 0 44.964 20.128 44.964 44.948 0 5.321-1.374 10.174-3.069 14.969h3.069zm-359.254 209.498c-115.741 0-209.586-93.757-209.586-209.498v-179.679c0-115.741 93.845-209.497 209.586-209.497 115.756 0 209.483 93.756 209.483 209.497v179.679c0 115.741-93.727 209.498-209.483 209.498zm119.731-389.177c0-66.07-53.646-119.746-119.731-119.746-66.159 0-119.746 53.676-119.746 119.746v179.679c0 66.071 53.587 119.746 119.746 119.746 66.086 0 119.731-53.675 119.731-119.746v-179.679z"/></svg>