<svg xmlns="http://www.w3.org/2000/svg" width="1000" height="1000" viewBox="0 0 1000 1000"><path fill-rule="evenodd" clip-rule="evenodd" fill="#020202" d="M792.733 734.206c0 48.492-39.285 87.835-87.777 87.835h-526.982c-48.563 0-87.85-39.343-87.85-87.835v-468.483c0-48.492 39.286-87.777 87.85-87.777h204.906c38.242 0 106.334 24.503 133.854 58.528h158.972c48.492 0 87.807 39.356 87.807 87.849v58.528h58.585c48.492 0 87.778 39.357 87.778 87.85l-117.143 263.505zm-117.027-380.618c0-16.141-13.124-29.265-29.335-29.265h-184.605c-19.828-34.081-69.979-58.6-108.149-58.6h-87.85c-48.492 0-87.792 39.372-87.792 87.864v248.865l58.528-131.752c0-48.492 39.285-87.85 87.863-87.85h351.34v-29.262zm87.807 117.113h-409.897c-16.212 0-29.25 13.124-29.25 29.264l-87.863 204.963c0 16.154 13.123 29.278 29.264 29.278h409.939c16.154 0 29.25-13.124 29.25-29.278l87.777-204.963c0-16.14-13.038-29.264-29.22-29.264z"/></svg>