<svg xmlns="http://www.w3.org/2000/svg" width="1000" height="1000" viewBox="0 0 1000 1000"><path fill-rule="evenodd" clip-rule="evenodd" fill="#020202" d="M772.566 851.525c-71.863 0-130.064-58.202-130.064-129.989 0-71.812 58.201-130.014 130.064-130.014 71.787 0 129.989 58.202 129.989 130.014.001 71.787-58.201 129.989-129.989 129.989zm77.958-129.989c0-12.011-2.869-23.26-7.745-33.442l-103.706 103.68c10.183 4.901 21.432 7.771 33.493 7.771 43.068 0 77.958-34.891 77.958-78.009zm-155.991 0c0 12.037 2.895 23.286 7.771 33.469l103.706-103.681c-10.208-4.876-21.457-7.771-33.443-7.771-43.143.001-78.034 34.917-78.034 77.983zm141.187-133.644c-5.027-3.124-10.259-5.942-15.591-8.431 4.748 1.422 10.056 4.215 15.591 8.431zm-146.139-52.641c26.054 8.913 57.414 22.168 83.112 31.614-4.418-.381-8.685-1.346-13.204-1.346-45.708 0-85.982 21.839-112.163 55.281-21.305-13.534-45.886-29.354-70.796-37.912-28.872-9.929-38.18-31.894-39.652-54.063 1.409-2.006 2.807-4.139 4.152-6.298 2.666-3.275 4.824-6.881 6.297-10.843 18.08-33.747 29.686-74.555 47.689-93.092 23.031-23.845 0-142.939 0-142.939s-36.643-37.709-69.261-71.406c-4.621-4.748-11.249-8.354-18.613-11.376 5.828-8.964 11.655-17.217 16.277-21.965 20.759-21.433 62.354-21.433 62.354-21.433s62.29 0 83.062 21.433c29.405 30.345 62.341 64.296 62.341 64.296s20.746 107.16 0 128.592c-23.235 23.972-34.561 88.826-68.436 117.343-2.894 23.515 2.082 45.607 26.841 54.114zm-154.582-116.657c-25.787 26.587-38.306 98.653-76.015 130.318-3.213 26.13 2.272 50.635 29.799 60.157 48.564 16.684 114.283 47.028 137.848 47.562-6.297 16.125-10.106 33.545-10.106 51.904 0 34.764 12.9 66.226 33.545 91.01h-553.639v-47.612s46.216-95.251 69.26-95.251c23.108 0 89.55-30.802 138.509-47.612 27.526-9.522 33.023-34.027 29.812-60.157-37.709-31.665-50.241-103.731-75.951-130.318-23.108-23.845 0-142.939 0-142.939s29.799-54.57 46.14-71.406c23.044-23.844 69.184-23.844 69.184-23.844s69.261 0 92.368 23.844c32.618 33.697 69.248 71.406 69.248 71.406s23.043 119.093-.002 142.938z"/></svg>