<svg xmlns="http://www.w3.org/2000/svg" width="1000" height="1000" viewBox="0 0 1000 1000"><path fill-rule="evenodd" clip-rule="evenodd" fill="#020202" d="M500.001 894.742h-394.749v-60.671c0-60.79 60.7-121.491 91.036-121.491 30.439 0 117.799-39.262 182.252-60.761 36.207-12.039 43.397-43.413 39.172-76.654-49.507-40.447-66.009-132.345-99.947-166.283-30.351-30.351 0-182.162 0-182.162s39.261-69.612 60.775-91.11c30.335-30.351 91.11-30.351 91.11-30.351s91.037 0 121.461 30.351c42.969 42.938 91.066 91.11 91.066 91.11s30.307 151.812 0 182.162c-33.982 33.938-50.411 125.836-99.992 166.283-4.21 33.241 3.084 64.615 39.262 76.654 64.408 21.499 151.827 60.761 182.192 60.761 30.336 0 91.096 60.701 91.096 121.491v60.671h-394.734z"/></svg>