<svg xmlns="http://www.w3.org/2000/svg" width="1000" height="1000" viewBox="0 0 1000 1000"><path fill-rule="evenodd" clip-rule="evenodd" fill="#020202" d="M797.417 798.404h-595.822c-46.991 0-85.144-38.069-85.144-85.144v-425.522c0-46.99 38.152-85.143 85.144-85.143h595.822c46.991 0 85.116 38.152 85.116 85.143v425.522c0 47.075-38.125 85.144-85.116 85.144zm0-482.321c0-15.627-12.745-28.345-28.371-28.345h-539.094c-15.641 0-28.357 12.718-28.357 28.345v368.834c0 15.627 12.717 28.344 28.357 28.344h539.094c15.626 0 28.371-12.717 28.371-28.344v-368.834zm-85.143 340.462h-113.487c-15.655 0-28.345-12.689-28.345-28.344 0-15.71 12.689-28.428 28.345-28.428h113.487c15.71 0 28.427 12.718 28.427 28.428 0 15.654-12.717 28.344-28.427 28.344zm0-113.487h-113.487c-15.655 0-28.345-12.718-28.345-28.344 0-15.71 12.689-28.428 28.345-28.428h113.487c15.71 0 28.427 12.718 28.427 28.428 0 15.626-12.717 28.344-28.427 28.344zm0-113.488h-113.487c-15.655 0-28.345-12.718-28.345-28.344 0-15.71 12.689-28.428 28.345-28.428h113.487c15.71 0 28.427 12.718 28.427 28.428 0 15.627-12.717 28.344-28.427 28.344zm-170.204 226.975h-283.69v-24.021c0-23.967 21.777-48.017 32.735-48.017 10.889 0 34.204-15.487 57.367-23.966 18.203-6.733 16.084-28.067 10.667-45.827-9.642-17.622-15.336-40.203-24.409-50.205-10.889-11.997 0-72.065 0-72.065s14.116-27.458 21.86-35.937c10.889-12.08 32.667-12.08 32.667-12.08s32.735 0 43.693 12.08c15.419 16.957 32.735 35.937 32.735 35.937s10.889 60.068 0 72.065c-4.82 5.265-8.686 14.241-12.634 24.104l.443-.138s-1.178 2.354-2.633 5.402c-1.315 3.297-2.701 6.428-4.17 9.726-7.384 18.563-15.487 48.736 6.803 56.938 23.163 8.479 44.94 23.966 55.829 23.966s32.735 24.05 32.735 48.017l.002 24.021z"/></svg>