<svg xmlns="http://www.w3.org/2000/svg" width="1000" height="1000" viewBox="0 0 1000 1000"><path fill-rule="evenodd" clip-rule="evenodd" fill="#020202" d="M865.626 432.651l1.933 3.388-153.52 172.339 26.548 222.915c1.904 3.837 3.164 8.205 3.164 12.77 0 15.879-12.854 28.732-28.732 28.732-5.909 0-11.453-1.848-16.019-4.956l-1.848 1.344-197.151-97.287-197.206 97.287-1.849-1.344c-4.578 3.108-10.123 4.956-16.032 4.956-15.879 0-28.662-12.854-28.662-28.732 0-4.564 1.189-8.849 3.108-12.77l26.506-222.915-153.477-172.339 1.918-3.388c-4.354-5.041-7.1-11.538-7.1-18.707 0-15.879 12.784-28.648 28.663-28.648 1.554 0 3.024.224 4.509.447l.153-.224 207.106-41.811 105.996-202.163h1.625c4.942-8.569 14.114-14.339 24.741-14.339 10.572 0 19.729 5.77 24.672 14.339h1.625l105.996 202.163 207.204 41.811.056.224c1.457-.224 2.969-.447 4.509-.447 15.879 0 28.732 12.77 28.732 28.648.001 7.169-2.715 13.666-7.168 18.707zm-107.536-4.369c-2.604 0-4.957.896-7.029 2.072l-165.086-23.552-70.613-164.945h-1.021c0-7.897-6.428-14.339-14.339-14.339-7.967 0-14.394 6.441-14.394 14.339h-.967l-70.683 164.945-165.086 23.552c-2.072-1.176-4.368-2.072-7.015-2.072-7.911 0-14.339 6.441-14.339 14.338 0 7.897 6.428 14.339 14.339 14.339v7.141l114.706 114.706-28.663 200.762 172.101-86.029 172.031 86.029-28.677-200.763 114.735-114.705v-7.141c7.896 0 14.31-6.441 14.31-14.339-.001-7.896-6.414-14.338-14.31-14.338zm-114.735 215.102h-258.06l143.354-143.383-200.749-57.381h315.455l-157.748 157.693 157.748 43.071z"/></svg>