<svg xmlns="http://www.w3.org/2000/svg" width="1000" height="1000" viewBox="0 0 1000 1000"><path fill-rule="evenodd" clip-rule="evenodd" fill="#020202" d="M817.67 874.124h-165.989c-30.593 0-55.294-24.81-55.294-55.375v-110.695c0-30.593 24.701-55.32 55.294-55.32v-55.402c0-45.835 37.133-82.968 83.021-82.968 45.835 0 82.968 37.133 82.968 82.968v55.402c30.592 0 55.401 24.728 55.401 55.32v110.695c0 30.565-24.809 55.375-55.401 55.375zm-55.294-276.793c0-15.242-12.432-27.646-27.674-27.646-15.296 0-27.728 12.404-27.728 27.646v55.402h55.401v-55.402h.001zm-27.674 138.369c-15.296 0-27.728 12.405-27.728 27.729 0 15.242 12.432 27.646 27.728 27.646 15.242 0 27.674-12.404 27.674-27.646 0-15.324-12.432-27.729-27.674-27.729zm-110.263-170.069l-.433-2.865.811-.783c-.162 1.215-.378 2.431-.378 3.648zm-.432 59.429h-249.065l138.369-138.424-193.717-55.32h304.412l-152.26 152.205 152.261 41.539zm216.364-200.069l-57.564 64.509c-6.54-1.648-13.296-2.864-20.431-2.864-4.757 0-9.351.648-13.837 1.433-4.54-.784-9.135-1.433-13.837-1.433-4.757 0-9.297.648-13.837 1.433-4.54-.784-9.081-1.433-13.891-1.433-2.541 0-5.027.567-7.621.784l35.349-35.35v-6.918c7.621 0 13.837-6.189 13.837-13.837 0-7.621-6.216-13.811-13.837-13.811-2.486 0-4.702.838-6.757 1.974l-159.286-22.728-68.158-159.151h-1.026c0-7.648-6.162-13.838-13.837-13.838-7.676 0-13.892 6.189-13.892 13.838h-.919l-68.211 159.151-159.287 22.729c-2-1.136-4.216-1.974-6.811-1.974-7.621 0-13.837 6.189-13.837 13.811 0 7.647 6.216 13.837 13.837 13.837v6.918l110.695 110.695-27.618 193.744 166.043-83.049 83.021 41.484v75.076l-83.021-40.917-190.313 93.805-1.783-1.216c-4.378 3-9.729 4.702-15.458 4.702-15.297 0-27.675-12.323-27.675-27.646 0-4.433 1.189-8.648 3.027-12.351l25.565-215.121-148.043-166.286 1.784-3.297c-4.217-4.838-6.811-11.107-6.811-18.026 0-15.323 12.323-27.728 27.619-27.728 1.514 0 2.919.216 4.379.514l.107-.217 199.879-40.43 102.317-195.095h1.567c4.757-8.188 13.621-13.837 23.837-13.837 10.215 0 19.079 5.648 23.836 13.837h1.567l102.264 195.095 199.986 40.43.055.217c1.405-.298 2.864-.514 4.324-.514 15.35 0 27.728 12.404 27.728 27.728 0 6.919-2.595 13.188-6.919 18.026l1.894 3.297z"/></svg>