<svg xmlns="http://www.w3.org/2000/svg" width="1000" height="1000" viewBox="0 0 1000 1000"><path fill-rule="evenodd" clip-rule="evenodd" fill="#020202" d="M837.23 727.968c-47.573 82.688-128.117 148.92-191.394 157.496-1.217.145-2.434.231-3.65.231-9.909 0-19.064-5.359-23.468-13.993-4.926-9.706-2.607-21.237 5.62-28.654 1.333-1.13 78.4-72.142 66.869-176.907-9.098-82.602-113.862-112.327-189.713-112.327h-.174v74.952c0 36.245-24.164 52.644-46.53 52.644-12.227 0-24.512-4.346-36.737-12.806l-277.674-216.283c-16.398-11.444-26.539-29.407-26.539-48.297 0-18.804 10.141-36.767 27.697-49.138l287.758-226.886c13.27-9.388 13.27-13.676 25.496-13.676 22.366 0 46.53 16.428 46.53 52.586v73.968c84.311 6.026 279.528 36.679 351.729 186.236 46.356 95.901 40.678 202.724-15.82 300.854zm-70.808-257.915c-36.854-55.251-118.673-148.398-326.407-148.398v-88.946l-177.95 118.673c-17.674 12.371-29.553 33.84-29.553 52.644 0 18.89 10.141 36.853 26.597 48.297l99.608 67.854c12.169 8.576 81.298 38.823 81.298 38.823v-88.946c148.456 0 259.596 44.328 296.738 118.673 32.392 64.812 36.391 102.563 33.493 124.032-3.071 8.17-6.2 16.427-9.388 24.598 0 0 7.012-6.779 9.388-24.598 30.421-81.096 50.065-161.843-3.824-242.706z"/></svg>