<svg xmlns="http://www.w3.org/2000/svg" width="1000" height="1000" viewBox="0 0 1000 1000"><path fill-rule="evenodd" clip-rule="evenodd" fill="#020202" d="M866.361 222.877l3.313 3.33-110.713 110.697 95.939 95.955h-185.318v-.713h-67.912c-18.684 0-33.857-15.205-33.857-33.891v-67.912h-.729v-185.316l95.939 95.938 110.713-110.713 3.313 3.33c10.535-23.936 34.387-40.633 62.148-40.633 37.5 0 67.912 30.313 67.912 67.813 0 27.779-16.83 51.631-40.748 62.115zm-366.394 344.961c-37.434 0-67.846-30.41-67.846-67.879 0-37.4 30.412-67.813 67.846-67.813 37.436 0 67.846 30.412 67.846 67.813 0 37.469-30.411 67.879-67.846 67.879zm-67.846-169.582c0 18.686-15.238 33.891-33.924 33.891h-67.779v.713h-185.449l95.938-95.955-110.714-110.698 3.313-3.33c-23.852-10.484-40.615-34.336-40.615-62.115 0-37.5 30.346-67.813 67.846-67.813 27.762 0 51.613 16.697 62.082 40.633l3.313-3.33 110.715 110.713 95.938-95.938v185.316h-.662v67.913h-.002zm-298.615 378.885l-3.313-3.346 110.713-110.713-95.938-95.939h185.449v.695h67.779c18.686 0 33.924 15.207 33.924 33.924v67.879h.662v185.352l-95.938-95.939-110.715 110.68-3.313-3.313c-10.469 23.951-34.32 40.648-62.082 40.648-37.5 0-67.846-30.346-67.846-67.846.003-27.762 16.766-51.614 40.618-62.082zm468.164-209.303h101.836c3.775 0 7.154 1.061 10.467 2.121h143.842l-95.938 95.938 107.797 107.898-3.313 3.346c23.918 10.469 40.748 34.32 40.748 62.082 0 37.5-30.412 67.846-67.912 67.846-27.762 0-51.613-16.697-62.148-40.648l-3.313 3.313-107.798-107.898-96.07 95.938v-143.743c-.994-3.346-2.055-6.725-2.055-10.5v-101.77c0-18.716 15.173-33.923 33.857-33.923z"/></svg>