<svg xmlns="http://www.w3.org/2000/svg" width="1000" height="1000" viewBox="0 0 1000 1000"><path fill-rule="evenodd" clip-rule="evenodd" fill="#020202" d="M910.063 383.717l-202.137 170.138h-7.066c0 16.156-13.107 29.234-29.178 29.234s-29.178-13.078-29.178-29.234v55.079l-.229.228.229-142.784s-39.893-38.553-173.673 32.54c-96.196 51.119-114.076 113.122-114.076 113.122s-8.277-159.795 83.488-233.225c145.876-116.712 205.115-93.176 205.115-93.176l-.741-81.408-.113-.456c0-16.156 13.106-29.234 29.178-29.234 16.07 0 29.178 13.078 29.178 29.234 0 .313-.171.542-.171.912l209.374 179.03zm-267.559-228.78v39.294l-.343-39.607.343.313zm-437.686 165.494c-16.085 0-29.164 13.079-29.164 29.235v379.314c0 16.07 13.079 29.149 29.164 29.149h554.426c16.1 0 29.149-13.079 29.149-29.149v-167.146l87.563-86.651v282.947c0 48.326-39.236 87.563-87.563 87.563h-612.739c-48.325 0-87.563-39.236-87.563-87.563v-437.699c0-48.326 39.237-87.477 87.563-87.477h385.1c-19.847 10.429-56.063 34.335-122.511 87.477h-233.425z"/></svg>