<svg xmlns="http://www.w3.org/2000/svg" width="1000" height="1000" viewBox="0 0 1000 1000"><path fill-rule="evenodd" clip-rule="evenodd" fill="#020202" d="M841.959 893.062h-683.8219999999999c-29.604-7.711-51.658-35.128-51.658-67.007v-650.984c0-37.64 30.476-68.129 68.115-68.129h561.921l157.029 209.618v509.494c0 31.88-21.981 59.297-51.585 67.008zm-523.823-89.993l364.136 1.093v-211.745c0-35.453-28.747-64.111-64.142-64.111h-235.868c-35.453 0-64.126 28.658-64.126 64.111v210.652zm484.056-420.181l-126.095-185.924h-417.819c-33.341 0-60.389 26.944-60.389 60.389v482.047c0 33.356 11.61 63.433 44.966 63.433l15.349.059v-252.842c0-44.582 36.074-80.656 80.656-80.656h321.341c44.523 0 80.598 36.074 80.598 80.656v254.349h1.093c33.355 0 60.301-31.642 60.301-64.998v-356.513h-.001zm-393.045 56.577h-121.014c-16.767 0-30.238-13.561-30.238-30.313v-151.267c0-16.663 13.472-30.224 30.238-30.224h121.015c16.678 0 30.224 13.561 30.224 30.224v151.268c-.001 16.751-13.547 30.312-30.225 30.312zm-30.239-151.268h-60.552v90.702h60.552v-90.702z"/></svg>