<svg xmlns="http://www.w3.org/2000/svg" width="1000" height="1000" viewBox="0 0 1000 1000"><path fill-rule="evenodd" clip-rule="evenodd" fill="#020202" d="M714.787 407.935c-36.048 0-68.77-12.975-94.929-33.77l-183.204 105.835c.869 6.563 1.979 13.124 1.979 19.986 0 6.892-1.109 13.364-1.979 20.017l183.204 105.805c26.159-20.854 58.881-33.74 94.929-33.74 84.71 0 153.389 68.68 153.389 153.42 0 84.71-68.679 153.389-153.389 153.389-84.74 0-153.419-68.679-153.419-153.389 0-3.806.868-7.372 1.108-11.058l-189.136-109.161c-24.976 17.619-55.24 28.137-88.111 28.137-84.726 0-153.404-68.679-153.404-153.419 0-84.71 68.679-153.389 153.404-153.389 32.871 0 63.136 10.518 88.111 28.137l189.137-109.162c-.24-3.715-1.108-7.251-1.108-11.057 0-84.71 68.679-153.389 153.419-153.389 84.71 0 153.389 68.679 153.389 153.389-.001 84.74-68.68 153.419-153.39 153.419zm0 398.86c33.89 0 61.397-27.418 61.397-61.308 0-33.92-27.508-61.428-61.397-61.428-33.92 0-61.338 27.508-61.338 61.428 0 33.89 27.418 61.308 61.338 61.308zm-429.558-368.206c-33.92 0-61.413 27.508-61.413 61.397 0 33.92 27.493 61.338 61.413 61.338 33.904 0 61.322-27.418 61.322-61.338 0-33.889-27.418-61.397-61.322-61.397zm429.558-245.411c-33.92 0-61.338 27.448-61.338 61.338 0 33.92 27.418 61.338 61.338 61.338 33.89 0 61.397-27.418 61.397-61.338.001-33.89-27.507-61.338-61.397-61.338z"/></svg>