<svg xmlns="http://www.w3.org/2000/svg" width="1000" height="1000" viewBox="0 0 1000 1000"><path fill-rule="evenodd" clip-rule="evenodd" fill="#020202" d="M500.031 870.7c-204.758 0-370.778-165.941-370.778-370.7 0-204.758 166.021-370.7 370.778-370.7 204.745 0 370.713 165.942 370.713 370.7 0 204.759-165.968 370.7-370.713 370.7zm0-661.674c-160.693 0-290.975 130.281-290.975 290.974 0 160.693 130.281 290.975 290.975 290.975 160.68 0 290.961-130.281 290.961-290.975 0-160.692-130.281-290.974-290.961-290.974zm37.432 425.264c-20.649 20.662-54.202 20.662-74.877 0l-149.845-149.779c-20.675-20.714-20.675-54.229 0-74.891 20.727-20.739 54.215-20.739 74.955 0l112.335 112.335 112.322-112.335c20.688-20.739 54.254-20.739 74.916 0 20.662 20.662 20.662 54.177 0 74.891l-149.806 149.779z"/></svg>