<svg xmlns="http://www.w3.org/2000/svg" width="1000" height="1000" viewBox="0 0 1000 1000"><path fill-rule="evenodd" clip-rule="evenodd" fill="#020202" d="M499.994 875.854c-207.592 0-375.854-168.249-375.854-375.854 0-207.604 168.263-375.854 375.854-375.854 207.618 0 375.867 168.25 375.867 375.854 0 207.605-168.249 375.854-375.867 375.854zm0-670.875c-162.928 0-295.008 132.094-295.008 295.021s132.08 295.021 295.008 295.021c162.939 0 295.033-132.094 295.033-295.021s-132.093-295.021-295.033-295.021zm113.91 386.71l-113.91-113.949-113.897 113.949c-20.949 20.976-54.969 20.976-75.931 0-20.949-21.002-20.949-54.956 0-75.932l151.875-151.915c20.949-20.976 54.969-20.976 75.932 0l151.862 151.915c21.028 20.976 20.949 54.93 0 75.932-20.976 20.976-54.981 20.976-75.931 0z"/></svg>