<svg xmlns="http://www.w3.org/2000/svg" width="1000" height="1000" viewBox="0 0 1000 1000"><path fill-rule="evenodd" clip-rule="evenodd" fill="#020202" d="M810.587 796.259h-22.22l-155.507 88.907v-88.907c-49.154 0-88.906-39.81-88.906-88.878v-118.504c0-49.067 39.752-88.834 88.906-88.834h177.727c49.068 0 88.878 39.767 88.878 88.834v118.504c0 49.068-39.81 88.878-88.878 88.878zm-177.727-177.784c-16.404 0-29.684 13.279-29.684 29.684 0 16.317 13.279 29.597 29.684 29.597 16.347 0 29.597-13.279 29.597-29.597 0-16.405-13.25-29.684-29.597-29.684zm88.821 0c-16.347 0-29.598 13.279-29.598 29.684 0 16.317 13.251 29.597 29.598 29.597 16.404 0 29.684-13.279 29.684-29.597-.001-16.405-13.28-29.684-29.684-29.684zm88.906 0c-16.317 0-29.626 13.279-29.626 29.684 0 16.317 13.309 29.597 29.626 29.597 16.375 0 29.597-13.279 29.597-29.597 0-16.405-13.222-29.684-29.597-29.684zm-340.727-355.454c24.563 0 44.481 19.847 44.481 44.409v177.727c0 4.499-1.374 8.622-2.589 12.745 1.143 12.657-2.518 25.633-12.209 35.311l-104.775 104.732c-17.315 17.388-45.48 17.388-62.883 0-17.315-17.359-17.315-45.48 0-62.811l93.565-93.564v-174.14c0-24.562 19.919-44.409 44.41-44.409zm0-59.295c-155.45 0-281.433 125.982-281.433 281.432 0 155.45 125.982 281.505 281.433 281.505 12.209 0 24.114-.897 35.86-2.459 16.332 19.384 40.519 32.056 67.858 32.056v44.121c-32.909 9.691-67.627 15.102-103.719 15.102-204.518 0-370.339-165.749-370.339-370.324 0-204.502 165.821-370.323 370.339-370.323 199.541 0 361.789 157.951 369.658 355.525h-88.936c-7.752-148.507-130.248-266.635-280.721-266.635z"/></svg>