<svg xmlns="http://www.w3.org/2000/svg" width="1000" height="1000" viewBox="0 0 1000 1000"><path fill-rule="evenodd" clip-rule="evenodd" fill="#020202" d="M507.322 830.674c-77.127-1.727-155.211-25.461-217.836-71.578l66.543-66.543c42.689 31.615 95.568 50.641 154.742 50.641 200.816 0 281.674-112.52 281.674-258.381 0-184.471-119.328-278.105-265.213-278.105-139.215 0-260.852 71.486-271.926 252.412l-90.16 90.139c-3.195-20.285-5.154-41.455-5.037-64.072 1.842-248.961 162.229-372.158 369.828-367.402 259.756 5.922 352.133 190.02 352.133 367.402 0 171.926-120.4 350.895-374.748 345.487zm-105.037-353.602c-.488-4.057-1.469-8.113-1.469-12.17 0-57.449 54.838-109.629 112.404-109.629 57.449 0 109.582 54.885 109.582 112.426 0 57.449-49.336 111.074-106.877 111.074-17.953 0-35.789-5.641-51.9-15.014-161.482 44.158-235.789 78.619-252.506 258.193 1.096 4.01 2.473 8.113 2.473 12.637 0 26.348-21.287 47.75-47.727 47.75-26.324 0-47.727-21.402-47.727-47.75h-.631c13.292-197.993 115.132-295.312 284.378-357.517z"/></svg>