<svg xmlns="http://www.w3.org/2000/svg" width="1000" height="1000" viewBox="0 0 1000 1000"><path fill-rule="evenodd" clip-rule="evenodd" fill="#020202" d="M503.52 620.377l6.398.393-11.844 5.094-4.068 4.131-1.75-1.697-200.036 86.516 90.752-202.076.29 2.527 405.611-405.601 112.679 112.772-398.032 397.941zm-111.044-6.792l90.566 5.539-99.293-99.345 8.727 93.806zm-196.537-369.252v546.532h596.422v-298.117l99.387-99.438v447.343c0 27.424-22.228 49.693-49.6 49.693h-695.81c-27.466 0-49.693-22.27-49.693-49.693v-646.023c0-27.507 22.228-49.787 49.693-49.787h422.403l-82.884 99.49h-289.918z"/></svg>